<svg width="3" height="3" viewBox="0 0 3 3" fill="none" xmlns="http://www.w3.org/2000/svg">
<path d="M2.57924 1.01935C2.61925 1.19647 2.622 1.37999 2.58733 1.55824C2.55266 1.73648 2.48133 1.90553 2.37787 2.05464C2.27442 2.20376 2.14109 2.32965 1.9864 2.42432C1.83171 2.51899 1.65905 2.58035 1.47939 2.6045C1.29973 2.62865 1.11703 2.61506 0.942899 2.5646C0.76877 2.51414 0.607027 2.42791 0.467985 2.3114C0.328944 2.1949 0.215646 2.05067 0.135295 1.88789C0.0549449 1.72511 0.00929881 1.54734 0.0012793 1.36593C-0.013151 1.03949 0.0949169 0.71947 0.304186 0.468831C0.513455 0.218192 0.808779 0.0550862 1.13205 0.0116251C1.45533 -0.031836 1.78313 0.0474945 2.05096 0.233993C2.31879 0.420491 2.50725 0.700651 2.57924 1.01935Z" fill="#263238"/>
</svg>
