<svg width="3" height="3" viewBox="0 0 3 3" fill="none" xmlns="http://www.w3.org/2000/svg">
<path d="M0.516817 2.30666C0.338161 2.12259 0.217992 1.88973 0.171502 1.63755C0.125012 1.38537 0.154287 1.12517 0.255635 0.889888C0.356983 0.654609 0.525849 0.45481 0.740868 0.315755C0.955888 0.176699 1.20743 0.104629 1.46363 0.108676C1.71983 0.112722 1.9692 0.192694 2.18022 0.338479C2.39123 0.484263 2.55441 0.689306 2.64909 0.927681C2.74378 1.16606 2.76573 1.42707 2.71217 1.67767C2.65861 1.92828 2.53195 2.15723 2.3482 2.33557C2.1019 2.57464 1.77059 2.7059 1.42717 2.70047C1.08374 2.69505 0.756294 2.5534 0.516817 2.30666Z" fill="#5DBD6D"/>
</svg>
