<svg width="14" height="17" viewBox="0 0 14 17" fill="none" xmlns="http://www.w3.org/2000/svg">
<path d="M0.453835 17V0.272727H7.15128C8.38187 0.272727 9.40826 0.455137 10.2305 0.819957C11.0527 1.18478 11.6707 1.69117 12.0845 2.33913C12.4983 2.98165 12.7053 3.72218 12.7053 4.56072C12.7053 5.21413 12.5746 5.78859 12.3132 6.28409C12.0518 6.77415 11.6925 7.17708 11.2351 7.4929C10.7831 7.80327 10.2659 8.02379 9.68324 8.15447V8.31783C10.3203 8.34505 10.9165 8.52474 11.4719 8.85689C12.0328 9.18904 12.4875 9.65459 12.8359 10.2536C13.1844 10.8471 13.3587 11.5549 13.3587 12.3771C13.3587 13.2647 13.1381 14.0569 12.6971 14.7539C12.2615 15.4454 11.6162 15.9927 10.7614 16.3956C9.90649 16.7985 8.85286 17 7.6005 17H0.453835ZM3.99041 14.1087H6.87358C7.85914 14.1087 8.57789 13.9208 9.02983 13.5451C9.48177 13.1639 9.70774 12.6576 9.70774 12.0259C9.70774 11.5631 9.59612 11.1547 9.37287 10.8008C9.14962 10.4469 8.83108 10.1692 8.41726 9.96768C8.00888 9.76622 7.52154 9.66548 6.95526 9.66548H3.99041V14.1087ZM3.99041 7.27237H6.61222C7.09683 7.27237 7.52699 7.18797 7.9027 7.01918C8.28385 6.84493 8.58333 6.59991 8.80114 6.28409C9.02438 5.96828 9.13601 5.58984 9.13601 5.14879C9.13601 4.54439 8.92093 4.05705 8.49077 3.68679C8.06605 3.31652 7.46165 3.13139 6.67756 3.13139H3.99041V7.27237Z" fill="#5DBD6D"/>
</svg>
