<svg width="15" height="17" viewBox="0 0 15 17" fill="none" xmlns="http://www.w3.org/2000/svg">
<path d="M6.38352 17H0.453835V0.272727H6.43253C8.11506 0.272727 9.56345 0.607599 10.7777 1.27734C11.992 1.94164 12.9258 2.89725 13.5792 4.14418C14.238 5.3911 14.5675 6.88305 14.5675 8.62003C14.5675 10.3625 14.238 11.8598 13.5792 13.1122C12.9258 14.3646 11.9865 15.3256 10.7614 15.9954C9.54167 16.6651 8.08239 17 6.38352 17ZM3.99041 13.9698H6.23651C7.28196 13.9698 8.16134 13.7847 8.87465 13.4144C9.5934 13.0387 10.1325 12.4588 10.4918 11.6747C10.8567 10.8852 11.0391 9.86695 11.0391 8.62003C11.0391 7.384 10.8567 6.37393 10.4918 5.58984C10.1325 4.80575 9.59612 4.22857 8.88281 3.85831C8.16951 3.48804 7.29013 3.30291 6.24467 3.30291H3.99041V13.9698Z" fill="#5DBD6D"/>
</svg>
