<svg width="25" height="18" viewBox="0 0 25 18" fill="none" xmlns="http://www.w3.org/2000/svg">
<path d="M0.453835 17V0.272727H11.5291V3.18856H3.99041V7.17436H10.794V10.0902H3.99041V17H0.453835ZM18.639 17.245C17.3485 17.245 16.2377 16.9837 15.3066 16.4609C14.381 15.9328 13.6677 15.1868 13.1667 14.223C12.6658 13.2538 12.4153 12.1076 12.4153 10.7844C12.4153 9.49396 12.6658 8.36139 13.1667 7.38672C13.6677 6.41205 14.3728 5.65246 15.2821 5.10795C16.1969 4.56345 17.2696 4.29119 18.5002 4.29119C19.3278 4.29119 20.0983 4.4246 20.8116 4.69141C21.5304 4.95277 22.1565 5.34754 22.6902 5.87571C23.2292 6.40388 23.6485 7.06818 23.948 7.86861C24.2475 8.66359 24.3972 9.5947 24.3972 10.6619V11.6175H13.8038V9.46129H21.122C21.122 8.96035 21.0131 8.51657 20.7953 8.12997C20.5775 7.74337 20.2753 7.44117 19.8887 7.22337C19.5075 7.00012 19.0637 6.88849 18.5574 6.88849C18.0292 6.88849 17.5609 7.01101 17.1525 7.25604C16.7496 7.49562 16.4338 7.8196 16.2051 8.22798C15.9764 8.63092 15.8593 9.08014 15.8539 9.57564V11.6257C15.8539 12.2464 15.9682 12.7828 16.1969 13.2347C16.431 13.6867 16.7605 14.0352 17.1852 14.2802C17.6099 14.5252 18.1136 14.6477 18.6962 14.6477C19.0828 14.6477 19.4367 14.5933 19.758 14.4844C20.0792 14.3755 20.3542 14.2121 20.5829 13.9943C20.8116 13.7765 20.9859 13.5097 21.1056 13.1939L24.3237 13.4062C24.1603 14.1795 23.8255 14.8546 23.3191 15.4318C22.8181 16.0036 22.1702 16.45 21.3752 16.7713C20.5856 17.0871 19.6736 17.245 18.639 17.245Z" fill="#F2859A"/>
</svg>
