<svg width="34" height="22" viewBox="0 0 34 22" fill="none" xmlns="http://www.w3.org/2000/svg">
<path d="M0.453835 0.272727H4.81534L9.42188 11.5114H9.6179L14.2244 0.272727H18.5859V17H15.1555V6.11257H15.0167L10.6879 16.9183H8.35192L4.02308 6.07173H3.88423V17H0.453835V0.272727ZM27.0864 21.9659C25.9593 21.9659 24.9927 21.8107 24.1869 21.5004C23.3865 21.1954 22.7494 20.7789 22.2757 20.2507C21.8019 19.7225 21.4943 19.129 21.3527 18.4702L24.5708 18.0373C24.6688 18.2878 24.824 18.5219 25.0363 18.7397C25.2487 18.9575 25.5291 19.1317 25.8776 19.2624C26.2315 19.3986 26.6617 19.4666 27.1681 19.4666C27.9249 19.4666 28.5484 19.2815 29.0384 18.9112C29.5339 18.5464 29.7817 17.9338 29.7817 17.0735V14.7784H29.6347C29.4822 15.1269 29.2535 15.4563 28.9486 15.7667C28.6437 16.0771 28.2516 16.3303 27.7725 16.5263C27.2933 16.7223 26.7216 16.8203 26.0573 16.8203C25.1153 16.8203 24.2577 16.6025 23.4845 16.1669C22.7167 15.7259 22.1041 15.0534 21.6468 14.1495C21.1948 13.2402 20.9688 12.0913 20.9688 10.7028C20.9688 9.2816 21.2003 8.09458 21.6631 7.14169C22.1259 6.1888 22.7412 5.4755 23.509 5.00178C24.2822 4.52805 25.1289 4.29119 26.0491 4.29119C26.7515 4.29119 27.3396 4.41098 27.8133 4.65057C28.287 4.88471 28.6682 5.17874 28.9568 5.53267C29.2508 5.88116 29.4768 6.22419 29.6347 6.56179H29.7654V4.45455H33.2203V17.1225C33.2203 18.1897 32.9589 19.0827 32.4362 19.8015C31.9134 20.5202 31.1892 21.0593 30.2636 21.4187C29.3434 21.7835 28.2843 21.9659 27.0864 21.9659ZM27.1599 14.2067C27.7207 14.2067 28.1945 14.0678 28.5811 13.7901C28.9731 13.507 29.2726 13.104 29.4795 12.5813C29.6919 12.0531 29.798 11.4215 29.798 10.6864C29.798 9.95135 29.6946 9.31428 29.4877 8.77521C29.2807 8.23071 28.9813 7.80871 28.5892 7.50923C28.1972 7.20975 27.7207 7.06001 27.1599 7.06001C26.5882 7.06001 26.1063 7.2152 25.7142 7.52557C25.3222 7.83049 25.0254 8.25521 24.824 8.79972C24.6225 9.34422 24.5218 9.97313 24.5218 10.6864C24.5218 11.4106 24.6225 12.0368 24.824 12.565C25.0309 13.0877 25.3276 13.4934 25.7142 13.782C26.1063 14.0651 26.5882 14.2067 27.1599 14.2067Z" fill="#EFB65D"/>
</svg>
